<?xml version="1.0" encoding="UTF-8"?>
<svg id="Layer_2" data-name="Layer 2" xmlns="http://www.w3.org/2000/svg" viewBox="0 0 78.63 62.14">
  <defs>
    <style>
      .cls-1 {
        fill: #fff;
      }
    </style>
  </defs>
  <g id="Layer_1-2" data-name="Layer 1">
    <g>
      <path class="cls-1" d="m73.93,0H4.7C2.12,0,0,2.35,0,5.22v51.7c0,2.87,2.12,5.22,4.7,5.22h69.23c2.59,0,4.7-2.35,4.7-5.22V5.22c0-2.87-2.12-5.22-4.7-5.22Zm-10.39,2.82h3.92c1.4,0,2.55,1.27,2.55,2.83s-1.15,2.83-2.55,2.83h-3.92c-1.4,0-2.55-1.27-2.55-2.83s1.15-2.83,2.55-2.83Zm-13.22,0h3.92c1.4,0,2.55,1.27,2.55,2.83s-1.15,2.83-2.55,2.83h-3.92c-1.4,0-2.55-1.27-2.55-2.83s1.15-2.83,2.55-2.83Zm-13.65,0h3.92c1.4,0,2.55,1.27,2.55,2.83s-1.15,2.83-2.55,2.83h-3.92c-1.4,0-2.55-1.27-2.55-2.83s1.15-2.83,2.55-2.83Zm-13.16,0h3.92c1.4,0,2.55,1.27,2.55,2.83s-1.15,2.83-2.55,2.83h-3.92c-1.4,0-2.55-1.27-2.55-2.83s1.15-2.83,2.55-2.83Zm-13.65,0h3.92c1.4,0,2.55,1.27,2.55,2.83s-1.15,2.83-2.55,2.83h-3.92c-1.4,0-2.55-1.27-2.55-2.83s1.15-2.83,2.55-2.83Zm3.92,56.2h-3.92c-1.4,0-2.55-1.27-2.55-2.83s1.15-2.83,2.55-2.83h3.92c1.4,0,2.55,1.27,2.55,2.83s-1.15,2.83-2.55,2.83Zm13.65,0h-3.92c-1.4,0-2.55-1.27-2.55-2.83s1.15-2.83,2.55-2.83h3.92c1.4,0,2.55,1.27,2.55,2.83s-1.15,2.83-2.55,2.83Zm13.16,0h-3.92c-1.4,0-2.55-1.27-2.55-2.83s1.15-2.83,2.55-2.83h3.92c1.4,0,2.55,1.27,2.55,2.83s-1.15,2.83-2.55,2.83Zm13.65,0h-3.92c-1.4,0-2.55-1.27-2.55-2.83s1.15-2.83,2.55-2.83h3.92c1.4,0,2.55,1.27,2.55,2.83s-1.15,2.83-2.55,2.83Zm13.22,0h-3.92c-1.4,0-2.55-1.27-2.55-2.83s1.15-2.83,2.55-2.83h3.92c1.4,0,2.55,1.27,2.55,2.83s-1.15,2.83-2.55,2.83Zm4.73-8.05H6.14V10.65h66.05v40.32Z"/>
      <polygon class="cls-1" points="30.63 14.72 30.63 46.91 55.05 29.44 30.63 14.72"/>
      <rect class="cls-1" x="27.12" y="14.72" width="2.18" height="32.19"/>
    </g>
  </g>
</svg>