<?xml version="1.0" encoding="UTF-8"?>
<svg id="Layer_2" data-name="Layer 2" xmlns="http://www.w3.org/2000/svg" viewBox="0 0 88.6 69.31">
  <defs>
    <style>
      .cls-1 {
        fill: #fff;
      }
    </style>
  </defs>
  <g id="Layer_1-2" data-name="Layer 1">
    <path class="cls-1" d="m83.7,0c-2.71,0-4.9,2.21-4.9,4.9,0,1.76.9,3.34,2.46,4.22.72.43.97,1.35.54,2.08l-16.5,28.58c-.27.47-.77.77-1.31.77s-1.04-.29-1.31-.77l-16.5-28.58c-.2-.34-.27-.77-.16-1.15.11-.38.36-.72.7-.93,1.56-.88,2.48-2.46,2.48-4.22,0-2.69-2.21-4.9-4.9-4.9s-4.9,2.21-4.9,4.9c0,1.76.9,3.34,2.46,4.22.72.43.97,1.35.54,2.08l-16.5,28.58c-.27.47-.77.77-1.31.77s-1.04-.29-1.31-.77L6.77,11.2c-.43-.72-.18-1.65.56-2.08,1.54-.88,2.46-2.46,2.46-4.22C9.8,2.21,7.59,0,4.9,0S0,2.21,0,4.9s2.19,4.9,4.9,4.9c.84,0,1.51.68,1.51,1.54v57.98h75.75v-11.65h-33.98c-.84,0-1.51-.68-1.51-1.51s.68-1.51,1.51-1.51h33.98V11.33c0-.86.7-1.54,1.54-1.54,2.69,0,4.9-2.19,4.9-4.9s-2.21-4.9-4.9-4.9Zm-50.91,57.66h-10.05c-.84,0-1.51-.68-1.51-1.51s.68-1.51,1.51-1.51h10.05c.84,0,1.51.68,1.51,1.51s-.68,1.51-1.51,1.51Z"/>
  </g>
</svg>