<?xml version="1.0" encoding="UTF-8"?>
<svg id="Layer_2" data-name="Layer 2" xmlns="http://www.w3.org/2000/svg" viewBox="0 0 82 82">
  <defs>
    <style>
      .cls-1 {
        fill: #fff;
      }
    </style>
  </defs>
  <g id="Layer_1-2" data-name="Layer 1">
    <g>
      <path class="cls-1" d="m11.71,61.5v11.71c0,1.18.71,2.25,1.81,2.71,1.1.45,2.35.2,3.19-.63l13.78-13.78h1.72v2.93c0,4.84,3.94,8.79,8.79,8.79h13.83l13.95,8.37c.9.54,2.03.56,2.95.04.92-.52,1.49-1.49,1.49-2.55v-5.86c4.84,0,8.79-3.94,8.79-8.79v-26.36c0-4.84-3.94-8.79-8.79-8.79h-2.93V11.71c0-6.46-5.26-11.71-11.71-11.71H11.71C5.26,0,0,5.26,0,11.71v38.07c0,6.46,5.26,11.71,11.71,11.71Zm58.57-11.71v-14.64h2.93c1.61,0,2.93,1.31,2.93,2.93v26.36c0,1.61-1.31,2.93-2.93,2.93h-2.93c-1.62,0-2.93,1.31-2.93,2.93v3.61l-10.21-6.12c-.46-.27-.98-.42-1.51-.42h-14.64c-1.61,0-2.93-1.31-2.93-2.93v-2.93h20.5c6.46,0,11.71-5.26,11.71-11.71ZM5.86,11.71c0-3.23,2.63-5.86,5.86-5.86h46.86c3.23,0,5.86,2.63,5.86,5.86v38.07c0,3.23-2.63,5.86-5.86,5.86h-29.29c-.78,0-1.52.31-2.07.86l-9.64,9.64v-7.57c0-1.62-1.31-2.93-2.93-2.93h-2.93c-3.23,0-5.86-2.63-5.86-5.86V11.71Z"/>
      <path class="cls-1" d="m25.1,19.92c1.11-5.48,6.34-9.01,11.88-8.04,4.14.72,7.53,4.12,8.26,8.26.76,4.35-1.3,8.7-5.15,10.81-1.22.67-2.01,2.18-2.01,3.85v3.28c0,1.62-1.31,2.93-2.93,2.93s-2.93-1.31-2.93-2.93v-3.28c0-3.82,1.93-7.26,5.04-8.98,1.68-.92,2.54-2.76,2.21-4.67-.3-1.72-1.77-3.2-3.5-3.5-2.68-.47-4.71,1.38-5.13,3.44-.32,1.59-1.87,2.62-3.45,2.29-1.58-.32-2.61-1.87-2.29-3.45Z"/>
      <path class="cls-1" d="m38.07,46.86c0,1.62-1.31,2.93-2.93,2.93s-2.93-1.31-2.93-2.93,1.31-2.93,2.93-2.93,2.93,1.31,2.93,2.93Z"/>
    </g>
  </g>
</svg>