<?xml version="1.0" encoding="UTF-8"?>
<svg id="Layer_2" data-name="Layer 2" xmlns="http://www.w3.org/2000/svg" viewBox="0 0 78.08 87.45">
  <defs>
    <style>
      .cls-1 {
        fill: #fff;
      }
    </style>
  </defs>
  <g id="Layer_1-2" data-name="Layer 1">
    <g>
      <path class="cls-1" d="m37.53,24.55v14.72c-2.14-.39-3.73-.93-4.75-1.61-1.99-1.34-2.99-3.28-2.99-5.78,0-2.64,1.02-4.65,3.05-6.04,1.16-.79,2.72-1.21,4.69-1.28Z"/>
      <path class="cls-1" d="m47.88,32.16h0c-.03-.28-.06-.55-.1-.82.04.26.08.54.1.82Z"/>
      <path class="cls-1" d="m35.91,65.78c-.77-.1-1.5-.23-2.19-.38.69.16,1.41.28,2.19.38Z"/>
      <path class="cls-1" d="m35.43,61.27c-.08-.02-.15-.03-.22-.04-.45-.11-.88-.24-1.27-.42.41.16.82.3,1.27.41.07.02.14.03.22.05Z"/>
      <path class="cls-1" d="m49.09,53.65c0,2.44-.87,4.41-2.6,5.91-1.53,1.33-3.39,1.99-5.55,1.99v-16.38c1.97.36,3.56.95,4.79,1.73,2.25,1.41,3.36,3.66,3.36,6.75Z"/>
      <path class="cls-1" d="m39.04,0C30.65,8.38,0,9.42,0,9.42c0,13.42,2.02,24.77,5.13,34.3,10.6,32.41,33.91,43.73,33.91,43.73,0,0,23.31-11.33,33.91-43.73,3.12-9.53,5.13-20.88,5.13-34.3,0,0-30.65-1.04-39.04-9.42Zm-11.72,24.62c2.29-2.71,5.7-4.17,10.22-4.41v-5.52h3.41v5.52c2.2.18,4.11.62,5.71,1.34.36.16.69.32,1.02.51.33.18.64.37.95.59.23.16.43.33.64.49.21.17.41.36.6.54h0c.72.7,1.3,1.47,1.77,2.31.16.27.29.54.42.82.45,1.01.75,2.11.9,3.3.04.3.07.62.09.93,0,.03,0,.05,0,.08.03.34.04.69.03,1.06h-5.21c-.03-.28-.06-.55-.1-.82,0-.08-.02-.16-.03-.24-.12-.82-.29-1.56-.52-2.21-.31-.9-.73-1.64-1.24-2.19-.15-.16-.3-.31-.47-.45-.2-.17-.41-.34-.62-.47-.05-.04-.1-.08-.16-.11h0c-.05-.03-.1-.07-.16-.09-.12-.07-.23-.14-.36-.2-.12-.06-.24-.12-.37-.17-.84-.36-1.8-.56-2.9-.62v15.48c.23.06.44.11.66.17.42.1.81.21,1.17.31.9.24,1.6.44,2.12.61,2.08.62,3.81,1.48,5.19,2.57h0c2.81,2.2,4.21,5.35,4.21,9.44,0,4.71-1.92,8.29-5.75,10.73-1.84,1.18-4.38,1.86-7.6,2.06v6.81h-3.41v-6.81c-.56-.04-1.1-.1-1.62-.16-.77-.1-1.5-.23-2.19-.38-.68-.16-1.3-.34-1.88-.55-3.49-1.21-5.89-3.72-7.19-7.51-.14-.42-.27-.84-.37-1.27-.03-.1-.05-.2-.07-.3-.03-.13-.06-.25-.09-.38-.04-.23-.09-.45-.12-.69-.03-.23-.07-.46-.1-.69-.03-.23-.05-.48-.07-.71-.04-.54-.06-1.08-.05-1.64h5.24c.06,3,.7,5.28,1.93,6.84.79,1.05,1.79,1.81,2.99,2.32.41.16.82.3,1.27.41.07.02.14.03.22.05.54.1,1.23.2,2.1.28v-17.12c-.27-.05-.55-.1-.81-.15-.53-.1-1.04-.23-1.54-.36-.25-.07-.5-.14-.75-.21-1.84-.54-3.47-1.26-4.9-2.15-3.3-2.1-4.95-5.18-4.95-9.25,0-2.97.91-5.54,2.73-7.7Z"/>
      <path class="cls-1" d="m37.53,44.42h0c-.27-.04-.55-.09-.81-.14.26.05.54.1.81.14Z"/>
      <rect class="cls-1" x="39.04" y="14.69" width="1.9" height="0"/>
      <path class="cls-1" d="m49.86,23.68h0c-.19-.18-.39-.36-.6-.54.21.17.41.36.6.54Z"/>
      <path class="cls-1" d="m53.08,32.16h0c0-.36,0-.71-.03-1.06.03.34.04.69.03,1.06Z"/>
      <g>
        <path class="cls-1" d="m37.53,44.42h0c-.27-.04-.55-.09-.81-.14.26.05.54.1.81.14Z"/>
        <rect class="cls-1" x="39.04" y="14.69" width="1.9" height="0"/>
        <path class="cls-1" d="m42.77,40.55c-.36-.1-.75-.21-1.17-.31.42.11.82.22,1.17.31Z"/>
        <path class="cls-1" d="m49.86,23.68h0c-.19-.18-.39-.36-.6-.54.21.17.41.36.6.54Z"/>
        <path class="cls-1" d="m53.08,32.16h0c0-.36,0-.71-.03-1.06.03.34.04.69.03,1.06Z"/>
      </g>
    </g>
  </g>
</svg>