<?xml version="1.0" encoding="UTF-8"?>
<svg id="Layer_2" data-name="Layer 2" xmlns="http://www.w3.org/2000/svg" viewBox="0 0 132.53 64.45">
  <defs>
    <style>
      .cls-1 {
        fill: #fff;
      }
    </style>
  </defs>
  <g id="Layer_1-2" data-name="Layer 1">
    <g id="Layer_1-3" data-name="Layer_1">
      <path class="cls-1" d="m58.84,46.94H5.31V5.31h70.33v7.19h5.31V2.66c0-1.47-1.19-2.66-2.66-2.66H2.66C1.19,0,0,1.19,0,2.66v46.94c0,1.47,1.19,2.66,2.66,2.66h56.18v-5.32h0Z"/>
      <path class="cls-1" d="m43.14,49.59c0-1.47-1.19-2.66-2.66-2.66s-2.66,1.19-2.66,2.66v11.06c0,1.47,1.19,2.66,2.66,2.66s2.66-1.19,2.66-2.66v-11.06Z"/>
      <path class="cls-1" d="m28.74,59.14c-1.47,0-2.66,1.19-2.66,2.66s1.19,2.66,2.66,2.66h23.47c1.47,0,2.66-1.19,2.66-2.66s-1.19-2.66-2.66-2.66h-23.47Z"/>
      <path class="cls-1" d="m3.67,37.53c-.72,0-1.29.73-1.29,1.63s.58,1.63,1.29,1.63h55.17v-3.27H3.67Z"/>
      <path class="cls-1" d="m65.36,13.83h35.48c1.43,0,2.73.58,3.67,1.52.94.94,1.52,2.24,1.52,3.67v40.24c0,1.43-.58,2.73-1.52,3.67-.94.94-2.24,1.52-3.67,1.52h-35.48c-1.43,0-2.73-.58-3.67-1.52-.94-.94-1.52-2.24-1.52-3.67V19.02c0-1.43.58-2.73,1.52-3.67.94-.94,2.24-1.52,3.67-1.52h0Zm35.35,5.31h-35.23v40h35.23V19.14h0Z"/>
      <path class="cls-1" d="m62.82,50.97c-.73,0-1.33.59-1.33,1.33s.59,1.33,1.33,1.33h40.54c.73,0,1.33-.59,1.33-1.33s-.59-1.33-1.33-1.33h-40.54Z"/>
      <circle class="cls-1" cx="83.1" cy="56.59" r="1.19"/>
      <path class="cls-1" d="m79.25,20.56c-.55,0-1,.45-1,1s.45,1,1,1h7.69c.55,0,1-.45,1-1s-.45-1-1-1h-7.69Z"/>
      <path class="cls-1" d="m111.73,26.05h16.94c1.06,0,2.02.43,2.72,1.13l-1.87,1.88,1.88-1.88c.08.08.16.17.23.26.56.67.9,1.54.9,2.47v30.66c0,1.06-.43,2.02-1.13,2.72l-1.88-1.87,1.88,1.88c-.08.08-.17.16-.26.23-.67.57-1.54.9-2.47.9h-16.94c-1.06,0-2.02-.43-2.72-1.13l1.87-1.88-1.88,1.88c-.08-.08-.16-.17-.23-.26-.56-.67-.9-1.54-.9-2.47v-30.66c0-1.06.43-2.02,1.13-2.72l1.88,1.87-1.88-1.88c.08-.08.17-.16.26-.23.67-.56,1.54-.9,2.47-.9Zm15.49,5.32h-14.05v27.77h14.05v-27.77h0Z"/>
      <path class="cls-1" d="m110.52,51.69c-.73,0-1.33.59-1.33,1.33s.59,1.33,1.33,1.33h19.36c.73,0,1.33-.59,1.33-1.33s-.59-1.33-1.33-1.33h-19.36Z"/>
      <circle class="cls-1" cx="120.2" cy="56.59" r="1.19"/>
      <path class="cls-1" d="m118.47,32.94c-.55,0-1,.45-1,1s.45,1,1,1h3.46c.55,0,1-.45,1-1s-.45-1-1-1h-3.46Z"/>
    </g>
  </g>
</svg>