<?xml version="1.0" encoding="UTF-8"?>
<svg id="Layer_2" data-name="Layer 2" xmlns="http://www.w3.org/2000/svg" viewBox="0 0 68.22 68.22">
  <defs>
    <style>
      .cls-1 {
        fill: #fff;
      }
    </style>
  </defs>
  <g id="Layer_1-2" data-name="Layer 1">
    <path class="cls-1" d="m34.11,0C15.27,0,0,15.27,0,34.11s15.27,34.11,34.11,34.11,34.11-15.27,34.11-34.11S52.95,0,34.11,0Zm7.22,23.99c0-2.38,1.93-4.31,4.31-4.31s4.31,1.93,4.31,4.31v4.94c0,2.38-1.93,4.31-4.31,4.31s-4.31-1.93-4.31-4.31v-4.94Zm-23.05,0c0-2.38,1.93-4.31,4.31-4.31s4.31,1.93,4.31,4.31v4.94c0,2.38-1.93,4.31-4.31,4.31s-4.31-1.93-4.31-4.31v-4.94Zm31.47,23.8c-3.54,5.17-9.38,8.25-15.63,8.25s-12.1-3.08-15.63-8.25c-.24-.35-.27-.81-.07-1.19.2-.38.59-.62,1.02-.62h29.36c.43,0,.82.24,1.02.62.2.38.17.84-.07,1.19Z"/>
  </g>
</svg>